<?xml version="1.0" encoding="UTF-8" standalone="no"?>
<svg style="image-rendering:optimizeSpeed;image-rendering:pixelated" viewBox="0 0 787 343"
 xmlns="http://www.w3.org/2000/svg" xmlns:xlink="http://www.w3.org/1999/xlink"  version="1.2" baseProfile="tiny">
<title>Qt SVG Document</title>
<desc>Generated with Qt</desc>
<defs>
</defs>
<g fill="none" stroke="black" stroke-width="1" fill-rule="evenodd" stroke-linecap="square" stroke-linejoin="bevel" >

<g fill="none" stroke="#000000" stroke-opacity="1" stroke-width="1" stroke-linecap="square" stroke-linejoin="bevel" transform="matrix(1,0,0,1,0,0)"
font-family="MS Shell Dlg 2" font-size="10.4" font-weight="400" font-style="normal" 
>
</g>

<g fill="none" stroke="#000000" stroke-opacity="1" stroke-width="1" stroke-linecap="square" stroke-linejoin="bevel" transform="matrix(1,0,0,1,0,0)"
font-family="MS Shell Dlg 2" font-size="10.4" font-weight="400" font-style="normal" 
>
</g>

<g fill="none" stroke="#000000" stroke-opacity="1" stroke-width="1" stroke-linecap="square" stroke-linejoin="bevel" transform="matrix(1,0,0,1,0,0)"
font-family="MS Shell Dlg 2" font-size="10.4" font-weight="400" font-style="normal" 
>
</g>

<g fill="none" stroke="#000000" stroke-opacity="1" stroke-width="1" stroke-linecap="square" stroke-linejoin="bevel" transform="matrix(1,0,0,1,237,15)"
font-family="MS Shell Dlg 2" font-size="10.4" font-weight="400" font-style="normal" 
>
</g>

<g fill="none" stroke="#000000" stroke-opacity="1" stroke-width="1" stroke-linecap="square" stroke-linejoin="bevel" transform="matrix(1,0,0,1,237,15)"
font-family="MS Shell Dlg 2" font-size="10.4" font-weight="400" font-style="normal" 
>
</g>

<g fill="none" stroke="#000000" stroke-opacity="1" stroke-width="1" stroke-linecap="square" stroke-linejoin="bevel" transform="matrix(1,0,0,1,237,15)"
font-family="MS Shell Dlg 2" font-size="10.4" font-weight="400" font-style="normal" 
>
</g>

<g fill="none" stroke="#000000" stroke-opacity="1" stroke-width="1" stroke-linecap="square" stroke-linejoin="bevel" transform="matrix(1,0,0,1,237,15)"
font-family="MS Shell Dlg 2" font-size="10.4" font-weight="400" font-style="normal" 
>
</g>

<g fill="none" stroke="#000000" stroke-opacity="1" stroke-width="1" stroke-linecap="square" stroke-linejoin="bevel" transform="matrix(1,0,0,1,237,15)"
font-family="MS Shell Dlg 2" font-size="10.4" font-weight="400" font-style="normal" 
>
</g>

<g fill="none" stroke="#000000" stroke-opacity="1" stroke-width="1" stroke-linecap="square" stroke-linejoin="bevel" transform="matrix(1,0,0,1,237,15)"
font-family="MS Shell Dlg 2" font-size="10.4" font-weight="400" font-style="normal" 
>
</g>

<g fill="none" stroke="#000000" stroke-opacity="1" stroke-width="1" stroke-linecap="square" stroke-linejoin="bevel" transform="matrix(1,0,0,1,237,15)"
font-family="MS Shell Dlg 2" font-size="10.4" font-weight="400" font-style="normal" 
>
</g>

<g fill="none" stroke="#000000" stroke-opacity="1" stroke-width="1" stroke-linecap="square" stroke-linejoin="bevel" transform="matrix(1,0,0,1,237,15)"
font-family="MS Shell Dlg 2" font-size="10.4" font-weight="400" font-style="normal" 
>
</g>

<g fill="none" stroke="#000000" stroke-opacity="1" stroke-width="1" stroke-linecap="square" stroke-linejoin="bevel" transform="matrix(1,0,0,1,237,15)"
font-family="MS Shell Dlg 2" font-size="10.4" font-weight="400" font-style="normal" 
>
</g>

<g fill="none" stroke="#000000" stroke-opacity="1" stroke-width="1" stroke-linecap="square" stroke-linejoin="bevel" transform="matrix(1,0,0,1,237,15)"
font-family="MS Shell Dlg 2" font-size="10.4" font-weight="400" font-style="normal" 
>
</g>

<g fill="none" stroke="#000000" stroke-opacity="1" stroke-width="1" stroke-linecap="square" stroke-linejoin="bevel" transform="matrix(1,0,0,1,237,15)"
font-family="MS Shell Dlg 2" font-size="10.4" font-weight="400" font-style="normal" 
>
</g>

<g fill="none" stroke="#000000" stroke-opacity="1" stroke-width="1" stroke-linecap="square" stroke-linejoin="bevel" transform="matrix(1,0,0,1,237,15)"
font-family="MS Shell Dlg 2" font-size="10.4" font-weight="400" font-style="normal" 
>
</g>

<g fill="none" stroke="#000000" stroke-opacity="1" stroke-width="1" stroke-linecap="square" stroke-linejoin="bevel" transform="matrix(1,0,0,1,237,15)"
font-family="MS Shell Dlg 2" font-size="10.4" font-weight="400" font-style="normal" 
>
</g>

<g fill="none" stroke="#000000" stroke-opacity="1" stroke-width="1" stroke-linecap="square" stroke-linejoin="bevel" transform="matrix(1,0,0,1,237,15)"
font-family="MS Shell Dlg 2" font-size="10.4" font-weight="400" font-style="normal" 
>
</g>

<g fill="none" stroke="#000000" stroke-opacity="1" stroke-width="1" stroke-linecap="square" stroke-linejoin="bevel" transform="matrix(1,0,0,1,237,15)"
font-family="MS Shell Dlg 2" font-size="10.4" font-weight="400" font-style="normal" 
>
</g>

<g fill="none" stroke="#000000" stroke-opacity="1" stroke-width="1" stroke-linecap="square" stroke-linejoin="bevel" transform="matrix(1,0,0,1,237,15)"
font-family="MS Shell Dlg 2" font-size="10.4" font-weight="400" font-style="normal" 
>
</g>

<g fill="none" stroke="#000000" stroke-opacity="1" stroke-width="1" stroke-linecap="square" stroke-linejoin="bevel" transform="matrix(1,0,0,1,237,15)"
font-family="MS Shell Dlg 2" font-size="10.4" font-weight="400" font-style="normal" 
>
</g>

<g fill="none" stroke="#000000" stroke-opacity="1" stroke-width="1" stroke-linecap="square" stroke-linejoin="bevel" transform="matrix(1,0,0,1,237,15)"
font-family="MS Shell Dlg 2" font-size="10.4" font-weight="400" font-style="normal" 
>
</g>

<g fill="none" stroke="#000000" stroke-opacity="1" stroke-width="1" stroke-linecap="square" stroke-linejoin="bevel" transform="matrix(1,0,0,1,237,15)"
font-family="MS Shell Dlg 2" font-size="10.4" font-weight="400" font-style="normal" 
>
</g>

<g fill="none" stroke="#000000" stroke-opacity="1" stroke-width="1" stroke-linecap="square" stroke-linejoin="bevel" transform="matrix(1,0,0,1,237,15)"
font-family="MS Shell Dlg 2" font-size="10.4" font-weight="400" font-style="normal" 
>
</g>

<g fill="none" stroke="#000000" stroke-opacity="1" stroke-width="1" stroke-linecap="square" stroke-linejoin="bevel" transform="matrix(1,0,0,1,237,15)"
font-family="MS Shell Dlg 2" font-size="10.4" font-weight="400" font-style="normal" 
>
</g>

<g fill="none" stroke="#000000" stroke-opacity="1" stroke-width="1" stroke-linecap="square" stroke-linejoin="bevel" transform="matrix(1,0,0,1,237,15)"
font-family="MS Shell Dlg 2" font-size="10.4" font-weight="400" font-style="normal" 
>
</g>

<g fill="none" stroke="#000000" stroke-opacity="1" stroke-width="1" stroke-linecap="square" stroke-linejoin="bevel" transform="matrix(1,0,0,1,237,15)"
font-family="MS Shell Dlg 2" font-size="10.4" font-weight="400" font-style="normal" 
>
</g>

<g fill="none" stroke="#000000" stroke-opacity="1" stroke-width="1" stroke-linecap="square" stroke-linejoin="bevel" transform="matrix(1,0,0,1,237,15)"
font-family="MS Shell Dlg 2" font-size="10.4" font-weight="400" font-style="normal" 
>
</g>

<g fill="none" stroke="#000000" stroke-opacity="1" stroke-width="1" stroke-linecap="square" stroke-linejoin="bevel" transform="matrix(1,0,0,1,237,15)"
font-family="MS Shell Dlg 2" font-size="10.4" font-weight="400" font-style="normal" 
>
</g>

<g fill="none" stroke="#000000" stroke-opacity="1" stroke-width="1" stroke-linecap="square" stroke-linejoin="bevel" transform="matrix(1,0,0,1,237,15)"
font-family="MS Shell Dlg 2" font-size="10.4" font-weight="400" font-style="normal" 
>
</g>

<g fill="none" stroke="#000000" stroke-opacity="1" stroke-width="1" stroke-linecap="square" stroke-linejoin="bevel" transform="matrix(1,0,0,1,237,15)"
font-family="MS Shell Dlg 2" font-size="10.4" font-weight="400" font-style="normal" 
>
</g>

<g fill="none" stroke="#000000" stroke-opacity="1" stroke-width="1" stroke-linecap="square" stroke-linejoin="bevel" transform="matrix(1,0,0,1,237,15)"
font-family="MS Shell Dlg 2" font-size="10.4" font-weight="400" font-style="normal" 
>
</g>

<g fill="none" stroke="#000000" stroke-opacity="1" stroke-width="1" stroke-linecap="square" stroke-linejoin="bevel" transform="matrix(1,0,0,1,393,171)"
font-family="MS Shell Dlg 2" font-size="10.4" font-weight="400" font-style="normal" 
>
</g>

<g fill="#d70000" fill-opacity="0.392157" stroke="none" transform="matrix(1,0,0,1,393,171)"
font-family="MS Shell Dlg 2" font-size="10.4" font-weight="400" font-style="normal" 
>
<path vector-effect="none" fill-rule="evenodd" d="M52,-6.36816e-15 C52,-57.4376 5.43761,-104 -52,-104 C-109.438,-104 -156,-57.4376 -156,-6.36816e-15 C-156,57.4376 -109.438,104 -52,104 C5.43761,104 52,57.4376 52,-6.36816e-15 "/>
</g>

<g fill="none" stroke="#000000" stroke-opacity="1" stroke-width="1" stroke-linecap="square" stroke-linejoin="bevel" transform="matrix(1,0,0,1,393,171)"
font-family="MS Shell Dlg 2" font-size="10.4" font-weight="400" font-style="normal" 
>
</g>

<g fill="none" stroke="#000000" stroke-opacity="1" stroke-width="1" stroke-linecap="square" stroke-linejoin="bevel" transform="matrix(1,0,0,1,393,171)"
font-family="MS Shell Dlg 2" font-size="10.4" font-weight="400" font-style="normal" 
>
</g>

<g fill="#8c3cff" fill-opacity="0.392157" stroke="none" transform="matrix(1,0,0,1,393,171)"
font-family="MS Shell Dlg 2" font-size="10.4" font-weight="400" font-style="normal" 
>
<path vector-effect="none" fill-rule="evenodd" d="M156,0 C156,-57.4376 109.438,-104 52,-104 C-5.43761,-104 -52,-57.4376 -52,0 C-52,57.4376 -5.43761,104 52,104 C109.438,104 156,57.4376 156,0 "/>
</g>

<g fill="none" stroke="#000000" stroke-opacity="1" stroke-width="1" stroke-linecap="square" stroke-linejoin="bevel" transform="matrix(1,0,0,1,393,171)"
font-family="MS Shell Dlg 2" font-size="10.4" font-weight="400" font-style="normal" 
>
</g>

<g fill="none" stroke="#000000" stroke-opacity="1" stroke-width="1" stroke-linecap="square" stroke-linejoin="bevel" transform="matrix(1,0,0,1,15.4063,135.5)"
font-family="MS Shell Dlg 2" font-size="10.4" font-weight="400" font-style="normal" 
>
</g>

<g fill="none" stroke="#000000" stroke-opacity="1" stroke-width="1" stroke-linecap="square" stroke-linejoin="bevel" transform="matrix(1,0,0,1,15.4063,135.5)"
font-family="MS Shell Dlg 2" font-size="10.4" font-weight="400" font-style="normal" 
>
</g>

<g fill="none" stroke="#000000" stroke-opacity="1" stroke-width="1" stroke-linecap="square" stroke-linejoin="bevel" transform="matrix(1,0,0,1,15.4063,135.5)"
font-family="MS Shell Dlg 2" font-size="10.4" font-weight="400" font-style="normal" 
>
<text fill="#000000" fill-opacity="1" stroke="none" xml:space="preserve" x="4" y="18" font-family="MS Shell Dlg 2" font-size="14" font-weight="700" font-style="normal" 
 >OSMI 2021 Mental Health in</text>
<text fill="#000000" fill-opacity="1" stroke="none" xml:space="preserve" x="30.4531" y="35" font-family="MS Shell Dlg 2" font-size="14" font-weight="700" font-style="normal" 
 >Tech Survey Results </text>
<text fill="#000000" fill-opacity="1" stroke="none" xml:space="preserve" x="95.6563" y="64" font-family="MS Shell Dlg 2" font-size="14" font-weight="400" font-style="normal" 
 >39</text>
</g>

<g fill="none" stroke="#000000" stroke-opacity="1" stroke-width="1" stroke-linecap="square" stroke-linejoin="bevel" transform="matrix(1,0,0,1,15.4063,135.5)"
font-family="MS Shell Dlg 2" font-size="10.4" font-weight="400" font-style="normal" 
>
</g>

<g fill="none" stroke="#000000" stroke-opacity="1" stroke-width="1" stroke-linecap="square" stroke-linejoin="bevel" transform="matrix(1,0,0,1,0,0)"
font-family="MS Shell Dlg 2" font-size="10.4" font-weight="400" font-style="normal" 
>
</g>

<g fill="none" stroke="#000000" stroke-opacity="1" stroke-width="1" stroke-linecap="square" stroke-linejoin="bevel" transform="matrix(1,0,0,1,0,0)"
font-family="MS Shell Dlg 2" font-size="10.4" font-weight="400" font-style="normal" 
>
</g>

<g fill="none" stroke="#000000" stroke-opacity="1" stroke-width="1" stroke-linecap="square" stroke-linejoin="bevel" transform="matrix(1,0,0,1,15.4063,135.5)"
font-family="MS Shell Dlg 2" font-size="10.4" font-weight="400" font-style="normal" 
>
</g>

<g fill="none" stroke="#000000" stroke-opacity="1" stroke-width="1" stroke-linecap="square" stroke-linejoin="bevel" transform="matrix(1,0,0,1,15.4063,135.5)"
font-family="MS Shell Dlg 2" font-size="10.4" font-weight="400" font-style="normal" 
>
</g>

<g fill="none" stroke="#000000" stroke-opacity="1" stroke-width="1" stroke-linecap="square" stroke-linejoin="bevel" transform="matrix(1,0,0,1,15.4063,135.5)"
font-family="MS Shell Dlg 2" font-size="10.4" font-weight="400" font-style="normal" 
>
</g>

<g fill="none" stroke="#000000" stroke-opacity="1" stroke-width="1" stroke-linecap="square" stroke-linejoin="bevel" transform="matrix(1,0,0,1,564,135.5)"
font-family="MS Shell Dlg 2" font-size="10.4" font-weight="400" font-style="normal" 
>
</g>

<g fill="none" stroke="#000000" stroke-opacity="1" stroke-width="1" stroke-linecap="square" stroke-linejoin="bevel" transform="matrix(1,0,0,1,564,135.5)"
font-family="MS Shell Dlg 2" font-size="10.4" font-weight="400" font-style="normal" 
>
</g>

<g fill="none" stroke="#000000" stroke-opacity="1" stroke-width="1" stroke-linecap="square" stroke-linejoin="bevel" transform="matrix(1,0,0,1,564,135.5)"
font-family="MS Shell Dlg 2" font-size="10.4" font-weight="400" font-style="normal" 
>
<text fill="#000000" fill-opacity="1" stroke="none" xml:space="preserve" x="4" y="18" font-family="MS Shell Dlg 2" font-size="14" font-weight="700" font-style="normal" 
 >OSMI 2021 Mental Health in</text>
<text fill="#000000" fill-opacity="1" stroke="none" xml:space="preserve" x="30.4531" y="35" font-family="MS Shell Dlg 2" font-size="14" font-weight="700" font-style="normal" 
 >Tech Survey Results </text>
<text fill="#000000" fill-opacity="1" stroke="none" xml:space="preserve" x="95.6563" y="64" font-family="MS Shell Dlg 2" font-size="14" font-weight="400" font-style="normal" 
 >17</text>
</g>

<g fill="none" stroke="#000000" stroke-opacity="1" stroke-width="1" stroke-linecap="square" stroke-linejoin="bevel" transform="matrix(1,0,0,1,564,135.5)"
font-family="MS Shell Dlg 2" font-size="10.4" font-weight="400" font-style="normal" 
>
</g>

<g fill="none" stroke="#000000" stroke-opacity="1" stroke-width="1" stroke-linecap="square" stroke-linejoin="bevel" transform="matrix(1,0,0,1,0,0)"
font-family="MS Shell Dlg 2" font-size="10.4" font-weight="400" font-style="normal" 
>
</g>

<g fill="none" stroke="#000000" stroke-opacity="1" stroke-width="1" stroke-linecap="square" stroke-linejoin="bevel" transform="matrix(1,0,0,1,0,0)"
font-family="MS Shell Dlg 2" font-size="10.4" font-weight="400" font-style="normal" 
>
</g>

<g fill="none" stroke="#000000" stroke-opacity="1" stroke-width="1" stroke-linecap="square" stroke-linejoin="bevel" transform="matrix(1,0,0,1,564,135.5)"
font-family="MS Shell Dlg 2" font-size="10.4" font-weight="400" font-style="normal" 
>
</g>

<g fill="none" stroke="#000000" stroke-opacity="1" stroke-width="1" stroke-linecap="square" stroke-linejoin="bevel" transform="matrix(1,0,0,1,564,135.5)"
font-family="MS Shell Dlg 2" font-size="10.4" font-weight="400" font-style="normal" 
>
</g>

<g fill="none" stroke="#000000" stroke-opacity="1" stroke-width="1" stroke-linecap="square" stroke-linejoin="bevel" transform="matrix(1,0,0,1,564,135.5)"
font-family="MS Shell Dlg 2" font-size="10.4" font-weight="400" font-style="normal" 
>
</g>

<g fill="none" stroke="#000000" stroke-opacity="1" stroke-width="1" stroke-linecap="square" stroke-linejoin="bevel" transform="matrix(1,0,0,1,237,15)"
font-family="MS Shell Dlg 2" font-size="10.4" font-weight="400" font-style="normal" 
>
</g>

<g fill="none" stroke="#000000" stroke-opacity="1" stroke-width="1" stroke-linecap="square" stroke-linejoin="bevel" transform="matrix(1,0,0,1,237,15)"
font-family="MS Shell Dlg 2" font-size="10.4" font-weight="400" font-style="normal" 
>
</g>

<g fill="none" stroke="#000000" stroke-opacity="1" stroke-width="1" stroke-linecap="square" stroke-linejoin="bevel" transform="matrix(1,0,0,1,237,15)"
font-family="MS Shell Dlg 2" font-size="10.4" font-weight="400" font-style="normal" 
>
</g>

<g fill="none" stroke="#000000" stroke-opacity="1" stroke-width="1" stroke-linecap="square" stroke-linejoin="bevel" transform="matrix(1,0,0,1,237,15)"
font-family="MS Shell Dlg 2" font-size="10.4" font-weight="400" font-style="normal" 
>
</g>

<g fill="none" stroke="#000000" stroke-opacity="1" stroke-width="1" stroke-linecap="square" stroke-linejoin="bevel" transform="matrix(1,0,0,1,237,15)"
font-family="MS Shell Dlg 2" font-size="10.4" font-weight="400" font-style="normal" 
>
</g>

<g fill="none" stroke="#000000" stroke-opacity="1" stroke-width="1" stroke-linecap="square" stroke-linejoin="bevel" transform="matrix(1,0,0,1,237,15)"
font-family="MS Shell Dlg 2" font-size="10.4" font-weight="400" font-style="normal" 
>
</g>

<g fill="none" stroke="#000000" stroke-opacity="1" stroke-width="1" stroke-linecap="square" stroke-linejoin="bevel" transform="matrix(1,0,0,1,237,15)"
font-family="MS Shell Dlg 2" font-size="10.4" font-weight="400" font-style="normal" 
>
</g>

<g fill="none" stroke="#000000" stroke-opacity="1" stroke-width="1" stroke-linecap="square" stroke-linejoin="bevel" transform="matrix(1,0,0,1,237,15)"
font-family="MS Shell Dlg 2" font-size="10.4" font-weight="400" font-style="normal" 
>
</g>

<g fill="none" stroke="#000000" stroke-opacity="1" stroke-width="1" stroke-linecap="square" stroke-linejoin="bevel" transform="matrix(1,0,0,1,393,171)"
font-family="MS Shell Dlg 2" font-size="10.4" font-weight="400" font-style="normal" 
>
</g>

<g fill="none" stroke="#0a0a0a" stroke-opacity="0.784314" stroke-width="1.5" stroke-linecap="square" stroke-linejoin="bevel" transform="matrix(1,0,0,1,393,171)"
font-family="MS Shell Dlg 2" font-size="10.4" font-weight="400" font-style="normal" 
>
<path vector-effect="none" fill-rule="evenodd" d=""/>
</g>

<g fill="none" stroke="#000000" stroke-opacity="1" stroke-width="1" stroke-linecap="square" stroke-linejoin="bevel" transform="matrix(1,0,0,1,393,171)"
font-family="MS Shell Dlg 2" font-size="10.4" font-weight="400" font-style="normal" 
>
</g>

<g fill="none" stroke="#000000" stroke-opacity="1" stroke-width="1" stroke-linecap="square" stroke-linejoin="bevel" transform="matrix(1,0,0,1,393,171)"
font-family="MS Shell Dlg 2" font-size="10.4" font-weight="400" font-style="normal" 
>
</g>

<g fill="none" stroke="#000000" stroke-opacity="1" stroke-width="1" stroke-linecap="square" stroke-linejoin="bevel" transform="matrix(1,0,0,1,393,171)"
font-family="MS Shell Dlg 2" font-size="10.4" font-weight="400" font-style="normal" 
>
</g>

<g fill="none" stroke="#000000" stroke-opacity="1" stroke-width="1" stroke-linecap="square" stroke-linejoin="bevel" transform="matrix(1,0,0,1,393,171)"
font-family="MS Shell Dlg 2" font-size="10.4" font-weight="400" font-style="normal" 
>
</g>

<g fill="none" stroke="#000000" stroke-opacity="1" stroke-width="1" stroke-linecap="square" stroke-linejoin="bevel" transform="matrix(1,0,0,1,393,171)"
font-family="MS Shell Dlg 2" font-size="10.4" font-weight="400" font-style="normal" 
>
</g>

<g fill="none" stroke="#000000" stroke-opacity="1" stroke-width="1" stroke-linecap="square" stroke-linejoin="bevel" transform="matrix(1,0,0,1,393,171)"
font-family="MS Shell Dlg 2" font-size="10.4" font-weight="400" font-style="normal" 
>
</g>

<g fill="none" stroke="#000000" stroke-opacity="1" stroke-width="1" stroke-linecap="square" stroke-linejoin="bevel" transform="matrix(1,0,0,1,0,0)"
font-family="MS Shell Dlg 2" font-size="10.4" font-weight="400" font-style="normal" 
>
</g>

<g fill="none" stroke="#000000" stroke-opacity="1" stroke-width="1" stroke-linecap="square" stroke-linejoin="bevel" transform="matrix(1,0,0,1,0,0)"
font-family="MS Shell Dlg 2" font-size="10.4" font-weight="400" font-style="normal" 
>
</g>

<g fill="none" stroke="#000000" stroke-opacity="1" stroke-width="1" stroke-linecap="square" stroke-linejoin="bevel" transform="matrix(1,0,0,1,393,171)"
font-family="MS Shell Dlg 2" font-size="10.4" font-weight="400" font-style="normal" 
>
</g>

<g fill="none" stroke="#000000" stroke-opacity="1" stroke-width="1" stroke-linecap="square" stroke-linejoin="bevel" transform="matrix(1,0,0,1,393,171)"
font-family="MS Shell Dlg 2" font-size="10.4" font-weight="400" font-style="normal" 
>
</g>

<g fill="none" stroke="#000000" stroke-opacity="1" stroke-width="1" stroke-linecap="square" stroke-linejoin="bevel" transform="matrix(1,0,0,1,393,171)"
font-family="MS Shell Dlg 2" font-size="10.4" font-weight="400" font-style="normal" 
>
</g>

<g fill="none" stroke="#000000" stroke-opacity="1" stroke-width="1" stroke-linecap="square" stroke-linejoin="bevel" transform="matrix(1,0,0,1,393,171)"
font-family="MS Shell Dlg 2" font-size="10.4" font-weight="400" font-style="normal" 
>
</g>

<g fill="none" stroke="#0a0a0a" stroke-opacity="0.784314" stroke-width="1.5" stroke-linecap="square" stroke-linejoin="bevel" transform="matrix(1,0,0,1,393,171)"
font-family="MS Shell Dlg 2" font-size="10.4" font-weight="400" font-style="normal" 
>
<path vector-effect="none" fill-rule="evenodd" d="M-9.15934e-15,-90.0804 L-1.72734,-91.064 L-3.97903,-92.2737 L-6.26343,-93.4293 L-8.57969,-94.53 L-10.9269,-95.5748 L-13.3043,-96.5629 L-15.711,-97.4935 L-18.1461,-98.3657 L-20.6088,-99.1786 L-23.0982,-99.9314 L-25.6135,-100.623 L-28.1538,-101.253 L-30.7182,-101.821 L-33.3059,-102.324 L-35.916,-102.764 L-38.5477,-103.138 L-41.2002,-103.446 L-43.8725,-103.687 L-46.5638,-103.86 L-49.2732,-103.965 L-52,-104 L-54.7268,-103.965 L-57.4362,-103.86 L-60.1275,-103.687 L-62.7998,-103.446 L-65.4523,-103.138 L-68.084,-102.764 L-70.6941,-102.324 L-73.2818,-101.821 L-75.8462,-101.253 L-78.3865,-100.623 L-80.9018,-99.9314 L-83.3912,-99.1786 L-85.8539,-98.3657 L-88.289,-97.4935 L-90.6957,-96.5629 L-93.0731,-95.5748 L-95.4203,-94.53 L-97.7366,-93.4293 L-100.021,-92.2737 L-102.273,-91.064 L-104.491,-89.801 L-106.674,-88.4855 L-108.823,-87.1186 L-110.935,-85.7009 L-113.011,-84.2334 L-115.048,-82.717 L-117.047,-81.1524 L-119.006,-79.5405 L-120.925,-77.8822 L-122.802,-76.1784 L-124.637,-74.4299 L-126.43,-72.6375 L-128.178,-70.8021 L-129.882,-68.9246 L-131.541,-67.0059 L-133.152,-65.0467 L-134.717,-63.048 L-136.233,-61.0105 L-137.701,-58.9352 L-139.119,-56.8229 L-140.486,-54.6745 L-141.801,-52.4908 L-143.064,-50.2727 L-144.274,-48.021 L-145.429,-45.7366 L-146.53,-43.4203 L-147.575,-41.0731 L-148.563,-38.6957 L-149.493,-36.289 L-150.366,-33.8539 L-151.179,-31.3912 L-151.931,-28.9018 L-152.623,-26.3865 L-153.253,-23.8462 L-153.821,-21.2818 L-154.324,-18.6941 L-154.764,-16.084 L-155.138,-13.4523 L-155.446,-10.7998 L-155.687,-8.12754 L-155.86,-5.43623 L-155.965,-2.72676 L-156,-6.36816e-15 L-155.965,2.72676 L-155.86,5.43623 L-155.687,8.12754 L-155.446,10.7998 L-155.138,13.4523 L-154.764,16.084 L-154.324,18.6941 L-153.821,21.2818 L-153.253,23.8462 L-152.623,26.3865 L-151.931,28.9018 L-151.179,31.3912 L-150.366,33.8539 L-149.493,36.289 L-148.563,38.6957 L-147.575,41.0731 L-146.53,43.4203 L-145.429,45.7366 L-144.274,48.021 L-143.064,50.2727 L-141.801,52.4908 L-140.486,54.6745 L-139.119,56.8229 L-137.701,58.9352 L-136.233,61.0105 L-134.717,63.048 L-133.152,65.0467 L-131.541,67.0059 L-129.882,68.9246 L-128.178,70.8021 L-126.43,72.6375 L-124.637,74.4299 L-122.802,76.1784 L-120.925,77.8822 L-119.006,79.5405 L-117.047,81.1524 L-115.048,82.717 L-113.011,84.2334 L-110.935,85.7009 L-108.823,87.1186 L-106.674,88.4855 L-104.491,89.801 L-102.273,91.064 L-100.021,92.2737 L-97.7366,93.4293 L-95.4203,94.53 L-93.0731,95.5748 L-90.6957,96.5629 L-88.289,97.4935 L-85.8539,98.3657 L-83.3912,99.1786 L-80.9018,99.9314 L-78.3865,100.623 L-75.8462,101.253 L-73.2818,101.821 L-70.6941,102.324 L-68.084,102.764 L-65.4523,103.138 L-62.7998,103.446 L-60.1275,103.687 L-57.4362,103.86 L-54.7268,103.965 L-52,104 L-49.2732,103.965 L-46.5638,103.86 L-43.8725,103.687 L-41.2002,103.446 L-38.5477,103.138 L-35.916,102.764 L-33.3059,102.324 L-30.7182,101.821 L-28.1538,101.253 L-25.6135,100.623 L-23.0982,99.9314 L-20.6088,99.1786 L-18.1461,98.3657 L-15.711,97.4935 L-13.3043,96.5629 L-10.9269,95.5748 L-8.57969,94.53 L-6.26343,93.4293 L-3.97903,92.2737 L-1.72734,91.064 L1.42109e-14,90.0804 L-0.490791,89.801 L-2.6745,88.4855 L-4.82292,87.1186 L-6.93521,85.7009 L-9.0105,84.2334 L-11.048,82.717 L-13.0467,81.1524 L-15.0059,79.5405 L-16.9246,77.8822 L-18.8021,76.1784 L-20.6375,74.4299 L-22.4299,72.6375 L-24.1784,70.8021 L-25.8822,68.9246 L-27.5405,67.0059 L-29.1524,65.0467 L-30.717,63.048 L-32.2334,61.0105 L-33.7009,58.9352 L-35.1186,56.8229 L-36.4855,54.6745 L-37.801,52.4908 L-39.064,50.2727 L-40.2737,48.021 L-41.4293,45.7366 L-42.53,43.4203 L-43.5748,41.0731 L-44.5629,38.6957 L-45.4935,36.289 L-46.3657,33.8539 L-47.1786,31.3912 L-47.9314,28.9018 L-48.6233,26.3865 L-49.2533,23.8462 L-49.8206,21.2818 L-50.3244,18.6941 L-50.7638,16.084 L-51.138,13.4523 L-51.446,10.7998 L-51.6871,8.12754 L-51.8604,5.43623 L-51.9649,2.72676 L-52,0 L-51.9649,-2.72676 L-51.8604,-5.43623 L-51.6871,-8.12754 L-51.446,-10.7998 L-51.138,-13.4523 L-50.7638,-16.084 L-50.3244,-18.6941 L-49.8206,-21.2818 L-49.2533,-23.8462 L-48.6233,-26.3865 L-47.9314,-28.9018 L-47.1786,-31.3912 L-46.3657,-33.8539 L-45.4935,-36.289 L-44.5629,-38.6957 L-43.5748,-41.0731 L-42.53,-43.4203 L-41.4293,-45.7366 L-40.2737,-48.021 L-39.064,-50.2727 L-37.801,-52.4908 L-36.4855,-54.6745 L-35.1186,-56.8229 L-33.7009,-58.9352 L-32.2334,-61.0105 L-30.717,-63.048 L-29.1524,-65.0467 L-27.5405,-67.0059 L-25.8822,-68.9246 L-24.1784,-70.8021 L-22.4299,-72.6375 L-20.6375,-74.4299 L-18.8021,-76.1784 L-16.9246,-77.8822 L-15.0059,-79.5405 L-13.0467,-81.1524 L-11.048,-82.717 L-9.0105,-84.2334 L-6.93521,-85.7009 L-4.82292,-87.1186 L-2.6745,-88.4855 L-0.490791,-89.801 L-9.15934e-15,-90.0804"/>
</g>

<g fill="none" stroke="#000000" stroke-opacity="1" stroke-width="1" stroke-linecap="square" stroke-linejoin="bevel" transform="matrix(1,0,0,1,393,171)"
font-family="MS Shell Dlg 2" font-size="10.4" font-weight="400" font-style="normal" 
>
</g>

<g fill="none" stroke="#000000" stroke-opacity="1" stroke-width="1" stroke-linecap="square" stroke-linejoin="bevel" transform="matrix(1,0,0,1,393,171)"
font-family="MS Shell Dlg 2" font-size="10.4" font-weight="400" font-style="normal" 
>
</g>

<g fill="none" stroke="#000000" stroke-opacity="1" stroke-width="1" stroke-linecap="square" stroke-linejoin="bevel" transform="matrix(1,0,0,1,279.547,160.5)"
font-family="MS Shell Dlg 2" font-size="10.4" font-weight="400" font-style="normal" 
>
</g>

<g fill="none" stroke="#000000" stroke-opacity="1" stroke-width="1" stroke-linecap="square" stroke-linejoin="bevel" transform="matrix(1,0,0,1,279.547,160.5)"
font-family="MS Shell Dlg 2" font-size="10.4" font-weight="400" font-style="normal" 
>
</g>

<g fill="none" stroke="#000000" stroke-opacity="1" stroke-width="1" stroke-linecap="square" stroke-linejoin="bevel" transform="matrix(1,0,0,1,279.547,160.5)"
font-family="MS Shell Dlg 2" font-size="10.4" font-weight="400" font-style="normal" 
>
<text fill="#000000" fill-opacity="1" stroke="none" xml:space="preserve" x="4" y="14" font-family="MS Shell Dlg 2" font-size="10.4" font-weight="400" font-style="normal" 
 >34</text>
</g>

<g fill="none" stroke="#000000" stroke-opacity="1" stroke-width="1" stroke-linecap="square" stroke-linejoin="bevel" transform="matrix(1,0,0,1,279.547,160.5)"
font-family="MS Shell Dlg 2" font-size="10.4" font-weight="400" font-style="normal" 
>
</g>

<g fill="none" stroke="#000000" stroke-opacity="1" stroke-width="1" stroke-linecap="square" stroke-linejoin="bevel" transform="matrix(1,0,0,1,0,0)"
font-family="MS Shell Dlg 2" font-size="10.4" font-weight="400" font-style="normal" 
>
</g>

<g fill="none" stroke="#000000" stroke-opacity="1" stroke-width="1" stroke-linecap="square" stroke-linejoin="bevel" transform="matrix(1,0,0,1,0,0)"
font-family="MS Shell Dlg 2" font-size="10.4" font-weight="400" font-style="normal" 
>
</g>

<g fill="none" stroke="#000000" stroke-opacity="1" stroke-width="1" stroke-linecap="square" stroke-linejoin="bevel" transform="matrix(1,0,0,1,279.547,160.5)"
font-family="MS Shell Dlg 2" font-size="10.4" font-weight="400" font-style="normal" 
>
</g>

<g fill="none" stroke="#000000" stroke-opacity="1" stroke-width="1" stroke-linecap="square" stroke-linejoin="bevel" transform="matrix(1,0,0,1,279.547,160.5)"
font-family="MS Shell Dlg 2" font-size="10.4" font-weight="400" font-style="normal" 
>
</g>

<g fill="none" stroke="#000000" stroke-opacity="1" stroke-width="1" stroke-linecap="square" stroke-linejoin="bevel" transform="matrix(1,0,0,1,279.547,160.5)"
font-family="MS Shell Dlg 2" font-size="10.4" font-weight="400" font-style="normal" 
>
</g>

<g fill="none" stroke="#000000" stroke-opacity="1" stroke-width="1" stroke-linecap="square" stroke-linejoin="bevel" transform="matrix(1,0,0,1,393,171)"
font-family="MS Shell Dlg 2" font-size="10.4" font-weight="400" font-style="normal" 
>
</g>

<g fill="none" stroke="#0a0a0a" stroke-opacity="0.784314" stroke-width="1.5" stroke-linecap="square" stroke-linejoin="bevel" transform="matrix(1,0,0,1,393,171)"
font-family="MS Shell Dlg 2" font-size="10.4" font-weight="400" font-style="normal" 
>
<path vector-effect="none" fill-rule="evenodd" d="M156,0 L155.965,-2.72676 L155.86,-5.43623 L155.687,-8.12754 L155.446,-10.7998 L155.138,-13.4523 L154.764,-16.084 L154.324,-18.6941 L153.821,-21.2818 L153.253,-23.8462 L152.623,-26.3865 L151.931,-28.9018 L151.179,-31.3912 L150.366,-33.8539 L149.493,-36.289 L148.563,-38.6957 L147.575,-41.0731 L146.53,-43.4203 L145.429,-45.7366 L144.274,-48.021 L143.064,-50.2727 L141.801,-52.4908 L140.486,-54.6745 L139.119,-56.8229 L137.701,-58.9352 L136.233,-61.0105 L134.717,-63.048 L133.152,-65.0467 L131.541,-67.0059 L129.882,-68.9246 L128.178,-70.8021 L126.43,-72.6375 L124.637,-74.4299 L122.802,-76.1784 L120.925,-77.8822 L119.006,-79.5405 L117.047,-81.1524 L115.048,-82.717 L113.011,-84.2334 L110.935,-85.7009 L108.823,-87.1186 L106.674,-88.4855 L104.491,-89.801 L102.273,-91.064 L100.021,-92.2737 L97.7366,-93.4293 L95.4203,-94.53 L93.0731,-95.5748 L90.6957,-96.5629 L88.289,-97.4935 L85.8539,-98.3657 L83.3912,-99.1786 L80.9018,-99.9314 L78.3865,-100.623 L75.8462,-101.253 L73.2818,-101.821 L70.6941,-102.324 L68.084,-102.764 L65.4523,-103.138 L62.7998,-103.446 L60.1275,-103.687 L57.4362,-103.86 L54.7268,-103.965 L52,-104 L49.2732,-103.965 L46.5638,-103.86 L43.8725,-103.687 L41.2002,-103.446 L38.5477,-103.138 L35.916,-102.764 L33.3059,-102.324 L30.7182,-101.821 L28.1538,-101.253 L25.6135,-100.623 L23.0982,-99.9314 L20.6088,-99.1786 L18.1461,-98.3657 L15.711,-97.4935 L13.3043,-96.5629 L10.9269,-95.5748 L8.57969,-94.53 L6.26343,-93.4293 L3.97903,-92.2737 L1.72734,-91.064 L-9.10383e-15,-90.0804 L0.490791,-89.801 L2.6745,-88.4855 L4.82292,-87.1186 L6.93521,-85.7009 L9.0105,-84.2334 L11.048,-82.717 L13.0467,-81.1524 L15.0059,-79.5405 L16.9246,-77.8822 L18.8021,-76.1784 L20.6375,-74.4299 L22.4299,-72.6375 L24.1784,-70.8021 L25.8822,-68.9246 L27.5405,-67.0059 L29.1524,-65.0467 L30.717,-63.048 L32.2334,-61.0105 L33.7009,-58.9352 L35.1186,-56.8229 L36.4855,-54.6745 L37.801,-52.4908 L39.064,-50.2727 L40.2737,-48.021 L41.4293,-45.7366 L42.53,-43.4203 L43.5748,-41.0731 L44.5629,-38.6957 L45.4935,-36.289 L46.3657,-33.8539 L47.1786,-31.3912 L47.9314,-28.9018 L48.6233,-26.3865 L49.2533,-23.8462 L49.8206,-21.2818 L50.3244,-18.6941 L50.7638,-16.084 L51.138,-13.4523 L51.446,-10.7998 L51.6871,-8.12754 L51.8604,-5.43623 L51.9649,-2.72676 L52,-6.36816e-15 L51.9649,2.72676 L51.8604,5.43623 L51.6871,8.12754 L51.446,10.7998 L51.138,13.4523 L50.7638,16.084 L50.3244,18.6941 L49.8206,21.2818 L49.2533,23.8462 L48.6233,26.3865 L47.9314,28.9018 L47.1786,31.3912 L46.3657,33.8539 L45.4935,36.289 L44.5629,38.6957 L43.5748,41.0731 L42.53,43.4203 L41.4293,45.7366 L40.2737,48.021 L39.064,50.2727 L37.801,52.4908 L36.4855,54.6745 L35.1186,56.8229 L33.7009,58.9352 L32.2334,61.0105 L30.717,63.048 L29.1524,65.0467 L27.5405,67.0059 L25.8822,68.9246 L24.1784,70.8021 L22.4299,72.6375 L20.6375,74.4299 L18.8021,76.1784 L16.9246,77.8822 L15.0059,79.5405 L13.0467,81.1524 L11.048,82.717 L9.0105,84.2334 L6.93521,85.7009 L4.82292,87.1186 L2.6745,88.4855 L0.490791,89.801 L1.45994e-14,90.0804 L1.72734,91.064 L3.97903,92.2737 L6.26343,93.4293 L8.57969,94.53 L10.9269,95.5748 L13.3043,96.5629 L15.711,97.4935 L18.1461,98.3657 L20.6088,99.1786 L23.0982,99.9314 L25.6135,100.623 L28.1538,101.253 L30.7182,101.821 L33.3059,102.324 L35.916,102.764 L38.5477,103.138 L41.2002,103.446 L43.8725,103.687 L46.5638,103.86 L49.2732,103.965 L52,104 L54.7268,103.965 L57.4362,103.86 L60.1275,103.687 L62.7998,103.446 L65.4523,103.138 L68.084,102.764 L70.6941,102.324 L73.2818,101.821 L75.8462,101.253 L78.3865,100.623 L80.9018,99.9314 L83.3912,99.1786 L85.8539,98.3657 L88.289,97.4935 L90.6957,96.5629 L93.0731,95.5748 L95.4203,94.53 L97.7366,93.4293 L100.021,92.2737 L102.273,91.064 L104.491,89.801 L106.674,88.4855 L108.823,87.1186 L110.935,85.7009 L113.011,84.2334 L115.048,82.717 L117.047,81.1524 L119.006,79.5405 L120.925,77.8822 L122.802,76.1784 L124.637,74.4299 L126.43,72.6375 L128.178,70.8021 L129.882,68.9246 L131.541,67.0059 L133.152,65.0467 L134.717,63.048 L136.233,61.0105 L137.701,58.9352 L139.119,56.8229 L140.486,54.6745 L141.801,52.4908 L143.064,50.2727 L144.274,48.021 L145.429,45.7366 L146.53,43.4203 L147.575,41.0731 L148.563,38.6957 L149.493,36.289 L150.366,33.8539 L151.179,31.3912 L151.931,28.9018 L152.623,26.3865 L153.253,23.8462 L153.821,21.2818 L154.324,18.6941 L154.764,16.084 L155.138,13.4523 L155.446,10.7998 L155.687,8.12754 L155.86,5.43623 L155.965,2.72676 L156,0"/>
</g>

<g fill="none" stroke="#000000" stroke-opacity="1" stroke-width="1" stroke-linecap="square" stroke-linejoin="bevel" transform="matrix(1,0,0,1,393,171)"
font-family="MS Shell Dlg 2" font-size="10.4" font-weight="400" font-style="normal" 
>
</g>

<g fill="none" stroke="#000000" stroke-opacity="1" stroke-width="1" stroke-linecap="square" stroke-linejoin="bevel" transform="matrix(1,0,0,1,393,171)"
font-family="MS Shell Dlg 2" font-size="10.4" font-weight="400" font-style="normal" 
>
</g>

<g fill="none" stroke="#000000" stroke-opacity="1" stroke-width="1" stroke-linecap="square" stroke-linejoin="bevel" transform="matrix(1,0,0,1,487.547,160.5)"
font-family="MS Shell Dlg 2" font-size="10.4" font-weight="400" font-style="normal" 
>
</g>

<g fill="none" stroke="#000000" stroke-opacity="1" stroke-width="1" stroke-linecap="square" stroke-linejoin="bevel" transform="matrix(1,0,0,1,487.547,160.5)"
font-family="MS Shell Dlg 2" font-size="10.4" font-weight="400" font-style="normal" 
>
</g>

<g fill="none" stroke="#000000" stroke-opacity="1" stroke-width="1" stroke-linecap="square" stroke-linejoin="bevel" transform="matrix(1,0,0,1,487.547,160.5)"
font-family="MS Shell Dlg 2" font-size="10.4" font-weight="400" font-style="normal" 
>
<text fill="#000000" fill-opacity="1" stroke="none" xml:space="preserve" x="4" y="14" font-family="MS Shell Dlg 2" font-size="10.4" font-weight="400" font-style="normal" 
 >12</text>
</g>

<g fill="none" stroke="#000000" stroke-opacity="1" stroke-width="1" stroke-linecap="square" stroke-linejoin="bevel" transform="matrix(1,0,0,1,487.547,160.5)"
font-family="MS Shell Dlg 2" font-size="10.4" font-weight="400" font-style="normal" 
>
</g>

<g fill="none" stroke="#000000" stroke-opacity="1" stroke-width="1" stroke-linecap="square" stroke-linejoin="bevel" transform="matrix(1,0,0,1,0,0)"
font-family="MS Shell Dlg 2" font-size="10.4" font-weight="400" font-style="normal" 
>
</g>

<g fill="none" stroke="#000000" stroke-opacity="1" stroke-width="1" stroke-linecap="square" stroke-linejoin="bevel" transform="matrix(1,0,0,1,0,0)"
font-family="MS Shell Dlg 2" font-size="10.4" font-weight="400" font-style="normal" 
>
</g>

<g fill="none" stroke="#000000" stroke-opacity="1" stroke-width="1" stroke-linecap="square" stroke-linejoin="bevel" transform="matrix(1,0,0,1,487.547,160.5)"
font-family="MS Shell Dlg 2" font-size="10.4" font-weight="400" font-style="normal" 
>
</g>

<g fill="none" stroke="#000000" stroke-opacity="1" stroke-width="1" stroke-linecap="square" stroke-linejoin="bevel" transform="matrix(1,0,0,1,487.547,160.5)"
font-family="MS Shell Dlg 2" font-size="10.4" font-weight="400" font-style="normal" 
>
</g>

<g fill="none" stroke="#000000" stroke-opacity="1" stroke-width="1" stroke-linecap="square" stroke-linejoin="bevel" transform="matrix(1,0,0,1,487.547,160.5)"
font-family="MS Shell Dlg 2" font-size="10.4" font-weight="400" font-style="normal" 
>
</g>

<g fill="none" stroke="#000000" stroke-opacity="1" stroke-width="1" stroke-linecap="square" stroke-linejoin="bevel" transform="matrix(1,0,0,1,393,171)"
font-family="MS Shell Dlg 2" font-size="10.4" font-weight="400" font-style="normal" 
>
</g>

<g fill="none" stroke="#0a0a0a" stroke-opacity="0.784314" stroke-width="1.5" stroke-linecap="square" stroke-linejoin="bevel" transform="matrix(1,0,0,1,393,171)"
font-family="MS Shell Dlg 2" font-size="10.4" font-weight="400" font-style="normal" 
>
<path vector-effect="none" fill-rule="evenodd" d="M52,-6.36816e-15 L51.9649,-2.72676 L51.8604,-5.43623 L51.6871,-8.12754 L51.446,-10.7998 L51.138,-13.4523 L50.7638,-16.084 L50.3244,-18.6941 L49.8206,-21.2818 L49.2533,-23.8462 L48.6233,-26.3865 L47.9314,-28.9018 L47.1786,-31.3912 L46.3657,-33.8539 L45.4935,-36.289 L44.5629,-38.6957 L43.5748,-41.0731 L42.53,-43.4203 L41.4293,-45.7366 L40.2737,-48.021 L39.064,-50.2727 L37.801,-52.4908 L36.4855,-54.6745 L35.1186,-56.8229 L33.7009,-58.9352 L32.2334,-61.0105 L30.717,-63.048 L29.1524,-65.0467 L27.5405,-67.0059 L25.8822,-68.9246 L24.1784,-70.8021 L22.4299,-72.6375 L20.6375,-74.4299 L18.8021,-76.1784 L16.9246,-77.8822 L15.0059,-79.5405 L13.0467,-81.1524 L11.048,-82.717 L9.0105,-84.2334 L6.93521,-85.7009 L4.82292,-87.1186 L2.6745,-88.4855 L0.490791,-89.801 L-9.15934e-15,-90.0804 L-0.490791,-89.801 L-2.6745,-88.4855 L-4.82292,-87.1186 L-6.93521,-85.7009 L-9.0105,-84.2334 L-11.048,-82.717 L-13.0467,-81.1524 L-15.0059,-79.5405 L-16.9246,-77.8822 L-18.8021,-76.1784 L-20.6375,-74.4299 L-22.4299,-72.6375 L-24.1784,-70.8021 L-25.8822,-68.9246 L-27.5405,-67.0059 L-29.1524,-65.0467 L-30.717,-63.048 L-32.2334,-61.0105 L-33.7009,-58.9352 L-35.1186,-56.8229 L-36.4855,-54.6745 L-37.801,-52.4908 L-39.064,-50.2727 L-40.2737,-48.021 L-41.4293,-45.7366 L-42.53,-43.4203 L-43.5748,-41.0731 L-44.5629,-38.6957 L-45.4935,-36.289 L-46.3657,-33.8539 L-47.1786,-31.3912 L-47.9314,-28.9018 L-48.6233,-26.3865 L-49.2533,-23.8462 L-49.8206,-21.2818 L-50.3244,-18.6941 L-50.7638,-16.084 L-51.138,-13.4523 L-51.446,-10.7998 L-51.6871,-8.12754 L-51.8604,-5.43623 L-51.9649,-2.72676 L-52,0 L-51.9649,2.72676 L-51.8604,5.43623 L-51.6871,8.12754 L-51.446,10.7998 L-51.138,13.4523 L-50.7638,16.084 L-50.3244,18.6941 L-49.8206,21.2818 L-49.2533,23.8462 L-48.6233,26.3865 L-47.9314,28.9018 L-47.1786,31.3912 L-46.3657,33.8539 L-45.4935,36.289 L-44.5629,38.6957 L-43.5748,41.0731 L-42.53,43.4203 L-41.4293,45.7366 L-40.2737,48.021 L-39.064,50.2727 L-37.801,52.4908 L-36.4855,54.6745 L-35.1186,56.8229 L-33.7009,58.9352 L-32.2334,61.0105 L-30.717,63.048 L-29.1524,65.0467 L-27.5405,67.0059 L-25.8822,68.9246 L-24.1784,70.8021 L-22.4299,72.6375 L-20.6375,74.4299 L-18.8021,76.1784 L-16.9246,77.8822 L-15.0059,79.5405 L-13.0467,81.1524 L-11.048,82.717 L-9.0105,84.2334 L-6.93521,85.7009 L-4.82292,87.1186 L-2.6745,88.4855 L-0.490791,89.801 L1.42109e-14,90.0804 L0.490791,89.801 L2.6745,88.4855 L4.82292,87.1186 L6.93521,85.7009 L9.0105,84.2334 L11.048,82.717 L13.0467,81.1524 L15.0059,79.5405 L16.9246,77.8822 L18.8021,76.1784 L20.6375,74.4299 L22.4299,72.6375 L24.1784,70.8021 L25.8822,68.9246 L27.5405,67.0059 L29.1524,65.0467 L30.717,63.048 L32.2334,61.0105 L33.7009,58.9352 L35.1186,56.8229 L36.4855,54.6745 L37.801,52.4908 L39.064,50.2727 L40.2737,48.021 L41.4293,45.7366 L42.53,43.4203 L43.5748,41.0731 L44.5629,38.6957 L45.4935,36.289 L46.3657,33.8539 L47.1786,31.3912 L47.9314,28.9018 L48.6233,26.3865 L49.2533,23.8462 L49.8206,21.2818 L50.3244,18.6941 L50.7638,16.084 L51.138,13.4523 L51.446,10.7998 L51.6871,8.12754 L51.8604,5.43623 L51.9649,2.72676 L52,-6.36816e-15"/>
</g>

<g fill="none" stroke="#000000" stroke-opacity="1" stroke-width="1" stroke-linecap="square" stroke-linejoin="bevel" transform="matrix(1,0,0,1,393,171)"
font-family="MS Shell Dlg 2" font-size="10.4" font-weight="400" font-style="normal" 
>
</g>

<g fill="none" stroke="#000000" stroke-opacity="1" stroke-width="1" stroke-linecap="square" stroke-linejoin="bevel" transform="matrix(1,0,0,1,393,171)"
font-family="MS Shell Dlg 2" font-size="10.4" font-weight="400" font-style="normal" 
>
</g>

<g fill="none" stroke="#000000" stroke-opacity="1" stroke-width="1" stroke-linecap="square" stroke-linejoin="bevel" transform="matrix(1,0,0,1,386.273,160.5)"
font-family="MS Shell Dlg 2" font-size="10.4" font-weight="400" font-style="normal" 
>
</g>

<g fill="none" stroke="#000000" stroke-opacity="1" stroke-width="1" stroke-linecap="square" stroke-linejoin="bevel" transform="matrix(1,0,0,1,386.273,160.5)"
font-family="MS Shell Dlg 2" font-size="10.4" font-weight="400" font-style="normal" 
>
</g>

<g fill="none" stroke="#000000" stroke-opacity="1" stroke-width="1" stroke-linecap="square" stroke-linejoin="bevel" transform="matrix(1,0,0,1,386.273,160.5)"
font-family="MS Shell Dlg 2" font-size="10.4" font-weight="400" font-style="normal" 
>
<text fill="#000000" fill-opacity="1" stroke="none" xml:space="preserve" x="4" y="14" font-family="MS Shell Dlg 2" font-size="10.4" font-weight="400" font-style="normal" 
 >5</text>
</g>

<g fill="none" stroke="#000000" stroke-opacity="1" stroke-width="1" stroke-linecap="square" stroke-linejoin="bevel" transform="matrix(1,0,0,1,386.273,160.5)"
font-family="MS Shell Dlg 2" font-size="10.4" font-weight="400" font-style="normal" 
>
</g>

<g fill="none" stroke="#000000" stroke-opacity="1" stroke-width="1" stroke-linecap="square" stroke-linejoin="bevel" transform="matrix(1,0,0,1,0,0)"
font-family="MS Shell Dlg 2" font-size="10.4" font-weight="400" font-style="normal" 
>
</g>

<g fill="none" stroke="#000000" stroke-opacity="1" stroke-width="1" stroke-linecap="square" stroke-linejoin="bevel" transform="matrix(1,0,0,1,0,0)"
font-family="MS Shell Dlg 2" font-size="10.4" font-weight="400" font-style="normal" 
>
</g>

<g fill="none" stroke="#000000" stroke-opacity="1" stroke-width="1" stroke-linecap="square" stroke-linejoin="bevel" transform="matrix(1,0,0,1,386.273,160.5)"
font-family="MS Shell Dlg 2" font-size="10.4" font-weight="400" font-style="normal" 
>
</g>

<g fill="none" stroke="#000000" stroke-opacity="1" stroke-width="1" stroke-linecap="square" stroke-linejoin="bevel" transform="matrix(1,0,0,1,386.273,160.5)"
font-family="MS Shell Dlg 2" font-size="10.4" font-weight="400" font-style="normal" 
>
</g>

<g fill="none" stroke="#000000" stroke-opacity="1" stroke-width="1" stroke-linecap="square" stroke-linejoin="bevel" transform="matrix(1,0,0,1,386.273,160.5)"
font-family="MS Shell Dlg 2" font-size="10.4" font-weight="400" font-style="normal" 
>
</g>

<g fill="none" stroke="#000000" stroke-opacity="1" stroke-width="1" stroke-linecap="square" stroke-linejoin="bevel" transform="matrix(1,0,0,1,0,0)"
font-family="MS Shell Dlg 2" font-size="10.4" font-weight="400" font-style="normal" 
>
</g>
</g>
</svg>
